<?xml version="1.0" encoding="UTF-8"?>
<svg width="24px" height="24px" viewBox="0 0 24 24" version="1.1" xmlns="http://www.w3.org/2000/svg" xmlns:xlink="http://www.w3.org/1999/xlink">
    <g id="icon/form/refresh/blue" stroke="none" stroke-width="1" fill="none" fill-rule="evenodd">
        <path d="M12,4 C7.6,4 4,7.6 4,12 C4,16.4 7.6,20 12,20 C15.7,20 18.8,17.4 20,14 L18,14 C16.8,16.3 14.6,18 12,18 C8.7,18 6,15.3 6,12 C6,8.7 8.7,6 12,6 C13.7,6 15.1,6.7 16,8 L13,11 L20,11 L20,4 L18,6 C16.2,5 14.2,4 12,4 Z" id="Shape" fill="#4A90E2"></path>
    </g>
</svg>
